<?xml version="1.0" encoding="UTF-8"?><svg id="Layer_1" xmlns="http://www.w3.org/2000/svg" viewBox="0 0 600 600"><defs><style>.cls-1{fill:#fff;}</style></defs><path class="cls-1" d="M459.53,389.02c-8.01,5.86-13.86,14.46-20.58,21.87-13.12,14.94-28.91,27.69-46.6,37.35-116.14,64.75-263.81-26.44-253.78-159.4,3.64-62.64,44.88-119.64,102.5-143.98,66.03-29.58,151.18-10.83,197.91,44.47,9.63,10.63,17.39,23.93,31.83,28.22,11.93,3.64,25.47,2.81,38.06,2.96,12.99-.06,25.98.35,33.9-1.35,17.67-2.56,8.97-20.05,3.72-30.91-38.84-80.61-118.83-137.02-208.76-146.21C85.27,17.09-54.99,322.46,134.3,493.48c127.96,115.03,337.67,74.2,412-81.18,3.39-8.24,11.44-20.63,2.97-27.35-11.76-5.95-24.8-3.32-41.94-3.97-15.93.35-33.94-1.61-47.5,7.82l-.31.22Z"/><path class="cls-1" d="M301.61,321.56c-1.23,0-2.45-.31-3.56-.93-2.31-1.29-3.74-3.73-3.74-6.37v-148.11c0-4.03,3.27-7.3,7.3-7.3s7.3,3.27,7.3,7.3v135.04l88.11-54.26c3.44-2.12,7.93-1.04,10.04,2.39,2.11,3.43,1.04,7.93-2.39,10.04l-99.24,61.11c-1.17.72-2.5,1.08-3.83,1.08Z"/></svg>