<?xml version="1.0" encoding="UTF-8"?><svg id="Layer_1" xmlns="http://www.w3.org/2000/svg" viewBox="0 0 600 600"><defs><style>.cls-1{fill:#395a49;}.cls-2{fill:#fff;}</style></defs><rect class="cls-1" width="600" height="600"/><path class="cls-2" d="M397.02,354.14c-4.87,3.56-8.43,8.79-12.52,13.3-7.98,9.09-17.59,16.84-28.34,22.72-70.63,39.38-160.45-16.08-154.35-96.95,2.21-38.09,27.29-72.76,62.34-87.57,40.16-17.99,91.94-6.59,120.37,27.05,5.86,6.47,10.58,14.56,19.36,17.16,7.26,2.21,15.49,1.71,23.14,1.8,7.9-.04,15.8.21,20.61-.82,10.75-1.56,5.46-12.19,2.26-18.8-23.62-49.02-72.27-83.33-126.96-88.92-153.53-15.18-238.83,170.54-123.71,274.55,77.82,69.96,205.37,45.13,250.57-49.37,2.06-5.01,6.96-12.55,1.81-16.63-7.15-3.62-15.08-2.02-25.51-2.42-9.69.21-20.64-.98-28.89,4.76l-.19.13Z"/><path class="cls-2" d="M300.98,313.11c-.75,0-1.49-.19-2.17-.56-1.4-.78-2.27-2.27-2.27-3.88v-90.08c0-2.45,1.99-4.44,4.44-4.44s4.44,1.99,4.44,4.44v82.13l53.59-33c2.09-1.29,4.82-.64,6.11,1.45s.64,4.82-1.45,6.11l-60.35,37.17c-.71.44-1.52.66-2.33.66Z"/></svg>